<?xml version="1.0" standalone="no"?>
<!DOCTYPE svg PUBLIC "-//W3C//DTD SVG 20010904//EN"
 "http://www.w3.org/TR/2001/REC-SVG-20010904/DTD/svg10.dtd">
<svg version="1.0" xmlns="http://www.w3.org/2000/svg"
 width="500.000000pt" height="500.000000pt" viewBox="0 0 500.000000 500.000000"
 preserveAspectRatio="xMidYMid meet">

<g transform="translate(0.000000,500.000000) scale(0.100000,-0.100000)"
fill="#000000" stroke="none">
<path d="M3332 3617 l-22 -23 -2 -715 -3 -714 -777 -3 -778 -2 -2 460 -3 461
-32 20 -33 21 0 -526 0 -526 605 0 c596 0 605 0 605 20 0 19 8 20 238 22 l237
3 3 763 c1 419 -2 762 -6 762 -5 0 -18 -10 -30 -23z"/>
<path d="M3074 3403 c-104 -87 -251 -209 -327 -271 l-137 -114 0 -141 0 -142
233 -144 c127 -80 234 -146 236 -147 2 -2 1 -10 -3 -19 -5 -14 -8 -14 -35 0
-17 8 -32 15 -36 15 -3 0 -5 -54 -5 -120 l0 -120 135 0 135 0 0 680 c0 374 -1
680 -3 680 -2 0 -89 -71 -193 -157z"/>
<path d="M1790 2626 l0 -426 360 0 360 0 0 203 0 202 -337 210 c-186 115 -348
215 -360 223 l-23 14 0 -426z"/>
<path d="M2610 2621 c0 -39 -2 -71 -5 -71 -3 0 -17 7 -30 16 l-25 16 0 -191 0
-191 205 0 c188 0 205 1 205 18 0 9 2 70 3 135 l2 118 -165 103 c-91 56 -171
106 -177 110 -10 5 -13 -10 -13 -63z"/>
</g>
</svg>
